<svg id="_x31__x2C_5_px" enable-background="new 0 0 24 24" height="512" viewBox="0 0 24 24" width="512" xmlns="http://www.w3.org/2000/svg"><path d="m6.75 5c-.414 0-.75-.336-.75-.75v-3.5c0-.414.336-.75.75-.75s.75.336.75.75v3.5c0 .414-.336.75-.75.75z"/><path d="m11.75 5c-.414 0-.75-.336-.75-.75v-3.5c0-.414.336-.75.75-.75s.75.336.75.75v3.5c0 .414-.336.75-.75.75z"/><path d="m16.25 5c-.414 0-.75-.336-.75-.75v-3.5c0-.414.336-.75.75-.75s.75.336.75.75v3.5c0 .414-.336.75-.75.75z"/><path d="m17.25 18.5h-10.5c-.414 0-.75-.336-.75-.75s.336-.75.75-.75h10.5c.414 0 .75.336.75.75s-.336.75-.75.75z"/><path d="m17.25 14.5h-10.5c-.414 0-.75-.336-.75-.75s.336-.75.75-.75h10.5c.414 0 .75.336.75.75s-.336.75-.75.75z"/><path d="m12.25 10.5h-5.5c-.414 0-.75-.336-.75-.75s.336-.75.75-.75h5.5c.414 0 .75.336.75.75s-.336.75-.75.75z"/><path d="m18.25 24h-13.5c-1.517 0-2.75-1.233-2.75-2.75v-16.5c0-1.517 1.233-2.75 2.75-2.75h13.5c1.517 0 2.75 1.233 2.75 2.75v16.5c0 1.517-1.233 2.75-2.75 2.75zm-13.5-20.5c-.689 0-1.25.561-1.25 1.25v16.5c0 .689.561 1.25 1.25 1.25h13.5c.689 0 1.25-.561 1.25-1.25v-16.5c0-.689-.561-1.25-1.25-1.25z"/></svg>