<svg xmlns="http://www.w3.org/2000/svg" viewBox="0 0 244 240"><defs><style>.cls-1{fill:#fff;}.cls-2{fill:#2c9fc4;stroke:#1993c3;stroke-miterlimit:10;stroke-width:10px;}</style></defs><title>1Ativo 1</title><g id="Camada_2" data-name="Camada 2"><g id="Camada_1-2" data-name="Camada 1"><path class="cls-1" d="M122,0A122,122,0,0,0,0,122H244A122,122,0,0,0,122,0Z"/><circle class="cls-2" cx="122" cy="123" r="112"/><path class="cls-1" d="M184.4,121.71a6.09,6.09,0,0,0-.5-8.72L126.81,63a7.12,7.12,0,0,0-9.28.11L60.25,115.66a6.05,6.05,0,0,0-.28,8.7l1.44,1.5a6.25,6.25,0,0,0,8.59.65l4.28-3.83v56.13A6.23,6.23,0,0,0,80.52,185h22.33a6.23,6.23,0,0,0,6.23-6.23V139.54h28.48v39.27a5.89,5.89,0,0,0,5.85,6.23h23.66a6.23,6.23,0,0,0,6.24-6.23V123.47l2.64,2.32c1.45,1.28,4.51.25,6.83-2.3Z"/></g></g></svg>