<?xml version="1.0" encoding="iso-8859-1"?>
<!-- Generator: Adobe Illustrator 19.0.0, SVG Export Plug-In . SVG Version: 6.00 Build 0)  -->
<svg version="1.1" id="Capa_1" xmlns="http://www.w3.org/2000/svg" xmlns:xlink="http://www.w3.org/1999/xlink" x="0px" y="0px"
	 viewBox="0 0 449.306 449.306" style="enable-background:new 0 0 449.306 449.306;" xml:space="preserve">
<g>
	<g>
		<path d="M371.984,172.408h-19.331v-43.363C352.653,57.992,295.184,0,224.653,0s-128,57.992-128,129.045v43.363H84.637
			c-14.629,0-29.78,11.494-29.78,26.122v224.653c0,14.629,15.151,26.122,29.78,26.122h287.347c14.629,0,22.465-11.494,22.465-26.122
			V198.531C394.449,183.902,386.09,172.408,371.984,172.408z M237.714,344.816c0,8.882-6.792,15.673-15.673,15.673
			s-15.673-6.792-15.673-15.673v-36.571c0-8.882,6.792-15.674,15.673-15.674s15.673,6.792,15.673,15.674V344.816z M321.306,172.408
			H128v-43.363c0-53.812,43.363-97.698,96.653-97.698s96.653,43.886,96.653,97.698V172.408z"/>
	</g>
</g>
<g>
</g>
<g>
</g>
<g>
</g>
<g>
</g>
<g>
</g>
<g>
</g>
<g>
</g>
<g>
</g>
<g>
</g>
<g>
</g>
<g>
</g>
<g>
</g>
<g>
</g>
<g>
</g>
<g>
</g>
</svg>
