<svg id="Capa_1" enable-background="new 0 0 512.001 512.001" height="512" viewBox="0 0 512.001 512.001" width="512" xmlns="http://www.w3.org/2000/svg"><g><g><g><path d="m400.4 136.501c0-52.154-38.686-93.009-88.072-93.009-25.41 0-43.589 10.447-55.635 21.341-12.141-10.974-30.314-21.341-55.647-21.341-49.387 0-88.072 40.854-88.072 93.009 0 90.028 133.41 160.701 139.09 163.666 1.43.746 3.017 1.135 4.627 1.135.099 0 .197-.001.296-.004l.595-.017c1.535-.046 3.039-.444 4.397-1.165 5.651-3.004 138.421-74.57 138.421-163.615zm-143.467 143.523c-22.523-12.701-123.958-73.796-123.958-143.523 0-40.939 29.901-73.009 68.072-73.009 23.739 0 39.271 12.054 48.119 22.165 1.9 2.171 4.643 3.414 7.525 3.414.039 0 .079 0 .119-.001 2.924-.034 5.688-1.348 7.56-3.594l.053-.063c.111-.112.219-.228.324-.345 8.782-9.843 24.166-21.576 47.58-21.576 38.171 0 68.072 32.069 68.072 73.009.001 68.868-101.095 130.69-123.466 143.523z"/><path d="m316.885 113.775c-11.378 0-20.635 9.256-20.635 20.634v7.896c0 18.361-12.574 33.841-29.563 38.282v-48.121c4.404-1.046 7.681-5.005 7.681-9.729 0-5.522-4.477-10-10-10h-15.361c-5.523 0-10 4.478-10 10 0 4.724 3.277 8.683 7.681 9.729v48.121c-16.989-4.441-29.563-19.921-29.563-38.282v-7.896c0-11.378-9.257-20.634-20.635-20.634-5.523 0-10 4.477-10 10 0 5.522 4.477 10 10 10 .35 0 .635.284.635.634v7.896c0 29.436 21.464 53.953 49.563 58.723v28.329c-4.746.78-8.368 4.9-8.368 9.867 0 5.522 4.478 10 10 10h15.361c5.522 0 10.687-5.165 10.687-10.687 0-4.498-3.426-7.846-7.681-8.934v-28.575c28.099-4.77 49.563-29.287 49.563-58.723v-7.896c0-.35.285-.634.635-.634 5.523 0 10-4.478 10-10 0-5.523-4.478-10-10-10z"/><path d="m166.666 264.115-69.714-68.694v-73.959c0-16.709-13.594-30.303-30.304-30.303-.102 0-.54.007-.86.013-.063.001-.125.003-.188.005-1.708.059-3.405.265-5.07.61v-7.393c0-16.534-12.674-30.081-28.852-30.843-8.6-.398-17.361 2.808-23.425 8.592-5.167 4.929-8.012 11.352-8.012 18.085 0 23.794-.144 133.752-.24 167.864-.002.816.005 1.627.021 2.423.468 24.511 11.329 48.304 29.801 65.28.158.145.321.285.488.42l77.976 62.897v79.396c0 5.522 4.478 10 10 10h70.292c5.522 0 10-4.478 10-10v-118.15c-.002-28.47-11.632-56.26-31.913-76.243zm-100.442-152.947.425-.008c5.682 0 10.304 4.622 10.304 10.303v62.554c-5.468-.898-11.13-.379-16.423 1.59v-72.434c1.658-1.231 3.613-1.921 5.694-2.005zm112.353 337.341h-50.292v-74.177c0-3.023-1.368-5.885-3.722-7.783l-81.438-65.691c-14.328-13.281-22.746-31.751-23.108-50.732-.014-.655-.019-1.316-.017-1.978.096-34.122.24-144.117.24-167.919 0-1.248.611-2.464 1.817-3.614 2.118-2.022 5.524-3.242 8.68-3.084 5.399.254 9.792 5.128 9.792 10.864v122.917c-.337 1.214-.604 2.452-.802 3.713-1.57 10.067 1.743 20.407 8.865 27.677l70.434 73.684c3.817 3.992 10.146 4.134 14.139.318 3.992-3.816 4.135-10.147.318-14.139l-70.48-73.73c-.034-.036-.069-.071-.104-.107-2.78-2.823-4.024-6.693-3.411-10.62.394-2.523 1.539-4.826 3.281-6.633.317-.29.988-.897 1.322-1.199 4.964-3.903 12.002-3.462 16.46 1.064l.105.105 71.971 70.917c16.49 16.249 25.948 38.846 25.948 61.997v108.15z"/><path d="m511.76 80.229c0-6.733-2.845-13.156-8.012-18.085-6.063-5.783-14.812-8.989-23.425-8.592-16.179.762-28.853 14.309-28.853 30.843v7.393c-1.665-.345-3.362-.551-5.07-.61-.114-.004-.229-.006-.344-.006h.076c-.235-.005-.679-.012-.781-.012-16.71 0-30.304 13.594-30.304 30.303v73.959l-69.714 68.694c-20.28 19.982-31.911 47.772-31.911 76.243v118.15c0 5.522 4.477 10 10 10h70.292c5.522 0 10-4.478 10-10v-79.396l77.976-62.897c.167-.135.33-.275.488-.42 18.472-16.977 29.333-40.77 29.801-65.271.016-.806.022-1.616.021-2.435-.095-34.109-.24-144.067-.24-167.861zm-66.474 30.931.49.008c2.081.084 4.036.774 5.694 2.004v72.433c-5.293-1.967-10.955-2.485-16.423-1.587v-62.555c.001-5.681 4.623-10.303 10.239-10.303zm46.698 138.975c-.362 18.972-8.78 37.441-23.108 50.723l-81.439 65.691c-2.353 1.898-3.722 4.76-3.722 7.783v74.177h-50.292v-108.15c0-23.151 9.458-45.748 25.948-61.997l71.971-70.917.105-.105c4.458-4.525 11.498-4.967 16.46-1.064.33.299.991.896 1.314 1.19 1.763 1.838 2.898 4.13 3.29 6.643.613 3.925-.631 7.795-3.411 10.618-.028.029-.057.058-.084.087l-35.523 36.945c-3.828 3.98-3.704 10.312.277 14.139 3.98 3.828 10.311 3.704 14.139-.277l35.486-36.906c7.131-7.27 10.449-17.616 8.878-27.688-.196-1.261-.465-2.5-.802-3.714v-122.918c0-5.736 4.393-10.61 9.792-10.864 3.153-.153 6.561 1.062 8.68 3.084 1.206 1.15 1.817 2.366 1.817 3.614 0 23.802.145 133.797.24 167.917.002.664-.003 1.324-.016 1.989z"/><path d="m398.531 297.634c-1.661-3.991-5.816-6.506-10.124-6.129-4.131.361-7.693 3.377-8.766 7.373-1.064 3.964.486 8.332 3.838 10.711 3.42 2.427 8.049 2.464 11.507.093 3.849-2.64 5.308-7.75 3.545-12.048z"/></g></g></g></svg>